<svg id="Capa_1" data-name="Capa 1" xmlns="http://www.w3.org/2000/svg" viewBox="0 0 124.71 144"><defs><style>.cls-1{fill:#ffdb06;}.cls-2{fill:#dcb808;}.cls-3{fill:#1e120d;}.cls-4{fill:#fff;}</style></defs><title>simmer-hex-1</title><polygon class="cls-1" points="2.81 106.38 2.81 37.62 62.36 3.24 121.9 37.62 121.9 106.38 62.35 140.76 2.81 106.38"/><path class="cls-2" d="M201.53,6.48l56.74,32.76v65.52l-56.74,32.76-56.74-32.76V39.24L201.53,6.48m0-6.48L139.18,36v72l62.35,36,62.35-36V36L201.53,0h0Z" transform="translate(-139.18)"/><path class="cls-3" d="M164,99.5a3.91,3.91,0,0,0,1.53-.21,0.81,0.81,0,0,0,.45-0.82,1,1,0,0,0-.58-0.83,11,11,0,0,0-1.76-.8,17.84,17.84,0,0,1-1.67-.71,4.91,4.91,0,0,1-1.28-.88,3.56,3.56,0,0,1-.82-1.22,4.53,4.53,0,0,1-.29-1.71,3.7,3.7,0,0,1,1.45-3.08,6.29,6.29,0,0,1,4-1.13,12.75,12.75,0,0,1,2.42.22,11.28,11.28,0,0,1,1.84.49l-0.68,3.05a14.47,14.47,0,0,0-1.49-.42,8.09,8.09,0,0,0-1.8-.18q-1.84,0-1.84,1a1.06,1.06,0,0,0,.08.42,0.9,0.9,0,0,0,.32.36,4.41,4.41,0,0,0,.64.37q0.41,0.2,1,.44a16.11,16.11,0,0,1,2.13.94,5.1,5.1,0,0,1,1.33,1,3.1,3.1,0,0,1,.68,1.19,5.3,5.3,0,0,1,.2,1.52,3.51,3.51,0,0,1-1.54,3.1,7.68,7.68,0,0,1-4.35,1,12.29,12.29,0,0,1-4.76-.84l0.66-3.18a12.81,12.81,0,0,0,2.05.62A10,10,0,0,0,164,99.5Z" transform="translate(-139.18)"/><path class="cls-3" d="M176.59,84.47a2.15,2.15,0,0,1-.7,1.7,2.5,2.5,0,0,1-3.29,0,2.41,2.41,0,0,1,0-3.39,2.5,2.5,0,0,1,3.29,0A2.15,2.15,0,0,1,176.59,84.47Zm-0.37,17.84H172.3V88.47h3.92v13.84Z" transform="translate(-139.18)"/><path class="cls-3" d="M187,95a5.41,5.41,0,0,0-.49-2.68,1.81,1.81,0,0,0-1.67-.79q-0.37,0-.76,0l-0.76.09v10.68h-3.92V88.95l1.17-.28q0.67-.14,1.42-0.26t1.54-.18q0.79-.07,1.55-0.07a6.53,6.53,0,0,1,2.43.38,5.5,5.5,0,0,1,1.54.91A7.33,7.33,0,0,1,193,88.16a6.91,6.91,0,0,1,2.72.46,4.11,4.11,0,0,1,1.7,1.3,4.93,4.93,0,0,1,.87,2,12.91,12.91,0,0,1,.24,2.58v7.81h-3.92V95a5.41,5.41,0,0,0-.49-2.68,1.81,1.81,0,0,0-1.67-.79,3.53,3.53,0,0,0-.88.16,3.43,3.43,0,0,0-.93.39,6,6,0,0,1,.24,1.28q0.05,0.67.05,1.43v7.55H187V95Z" transform="translate(-139.18)"/><path class="cls-3" d="M209.13,95a5.41,5.41,0,0,0-.49-2.68A1.81,1.81,0,0,0,207,91.5q-0.37,0-.76,0l-0.76.09v10.68h-3.92V88.95l1.17-.28q0.67-.14,1.42-0.26t1.54-.18q0.79-.07,1.55-0.07a6.53,6.53,0,0,1,2.43.38,5.5,5.5,0,0,1,1.54.91,7.33,7.33,0,0,1,3.95-1.29,6.91,6.91,0,0,1,2.72.46,4.11,4.11,0,0,1,1.7,1.3,4.93,4.93,0,0,1,.87,2,12.91,12.91,0,0,1,.24,2.58v7.81h-3.92V95a5.41,5.41,0,0,0-.49-2.68,1.81,1.81,0,0,0-1.67-.79,3.53,3.53,0,0,0-.88.16,3.43,3.43,0,0,0-.93.39,6,6,0,0,1,.24,1.28q0.05,0.67.05,1.43v7.55h-3.92V95Z" transform="translate(-139.18)"/><path class="cls-3" d="M223,95.5a8.46,8.46,0,0,1,.57-3.22,6.91,6.91,0,0,1,1.49-2.3,6.18,6.18,0,0,1,2.12-1.39,6.63,6.63,0,0,1,2.46-.47,6.12,6.12,0,0,1,4.66,1.8,7.43,7.43,0,0,1,1.71,5.3q0,0.34,0,.75t-0.05.72H227a2.6,2.6,0,0,0,1.13,1.92,4.55,4.55,0,0,0,2.68.71,11.33,11.33,0,0,0,2.12-.2,8,8,0,0,0,1.7-.49l0.53,3.18a5.42,5.42,0,0,1-.84.32,11,11,0,0,1-1.17.28q-0.64.12-1.38,0.2a13.83,13.83,0,0,1-1.47.08,8.72,8.72,0,0,1-3.25-.55,6.32,6.32,0,0,1-2.29-1.51,6,6,0,0,1-1.34-2.28A9,9,0,0,1,223,95.5Zm9.21-1.5a4.08,4.08,0,0,0-.17-1,2.44,2.44,0,0,0-.45-0.84,2.39,2.39,0,0,0-.76-0.61,2.49,2.49,0,0,0-1.14-.24,2.63,2.63,0,0,0-1.13.22,2.34,2.34,0,0,0-.79.59,2.65,2.65,0,0,0-.49.86,5.59,5.59,0,0,0-.25,1h5.18Z" transform="translate(-139.18)"/><path class="cls-3" d="M246.86,91.95l-1.24-.28a7.65,7.65,0,0,0-1.53-.14,7.1,7.1,0,0,0-.88.07,5.2,5.2,0,0,0-.78.14v10.58h-3.92V89.21a23.56,23.56,0,0,1,2.49-.7,14.32,14.32,0,0,1,3.2-.33q0.32,0,.76,0l0.89,0.11,0.89,0.16a4.21,4.21,0,0,1,.76.22Z" transform="translate(-139.18)"/><path class="cls-3" d="M218.42,42.44h-3.34l7.1-12.85a2.82,2.82,0,1,0-4.94-2.73l-8.61,15.58H183.54V67.73A10.44,10.44,0,0,0,194,78.17h14a10.44,10.44,0,0,0,10.44-10.44V58A7.8,7.8,0,1,0,218.42,42.44Zm-18.75,7.84a3,3,0,1,1-3,3A3,3,0,0,1,199.67,50.28Zm1.31,21a4.3,4.3,0,1,1,4.3-4.3A4.3,4.3,0,0,1,201,71.33Zm8.24-11.27a3,3,0,1,1,3-3A3,3,0,0,1,209.22,60.06Zm9.2-6.06V46.47A3.76,3.76,0,1,1,218.42,54Z" transform="translate(-139.18)"/><circle class="cls-4" cx="60.5" cy="53.27" r="2.99"/><circle class="cls-4" cx="61.81" cy="67.03" r="4.3"/><circle class="cls-4" cx="70.04" cy="57.08" r="2.98"/></svg>