<svg id="Capa_1" data-name="Capa 1" xmlns="http://www.w3.org/2000/svg" viewBox="0 0 124.71 144"><defs><style>.cls-1{fill:#ffdb06;}.cls-2{fill:#1d1d1b;}.cls-3{fill:#1e120d;}.cls-4{fill:#fff;}</style></defs><title>simmer-hex-2</title><polygon class="cls-1" points="124.71 108 62.35 144 0 108 0 36 62.36 0 124.71 36 124.71 108"/><path class="cls-2" d="M15.61,69.65a4.28,4.28,0,0,1-.3,1.67,3.15,3.15,0,0,1-.85,1.18,3.52,3.52,0,0,1-1.32.7,6,6,0,0,1-1.71.23q-0.45,0-1,0a6.81,6.81,0,0,1-1.08-.15V66.07a6.46,6.46,0,0,1,1.09-.15l1,0a6.17,6.17,0,0,1,1.69.22,3.49,3.49,0,0,1,1.31.68A3.06,3.06,0,0,1,15.31,68,4.34,4.34,0,0,1,15.61,69.65Zm-4.92,2.59,0.31,0h0.52a2.69,2.69,0,0,0,2-.69,3.14,3.14,0,0,0,0-3.85,2.69,2.69,0,0,0-2-.67,7.83,7.83,0,0,0-.85,0v5.15Z"/><path class="cls-2" d="M17.08,73.34V66h4.74V67.1h-3.4v1.82h3V70h-3V72.2h3.65v1.14h-5Z"/><path class="cls-2" d="M25.1,72.34a1.79,1.79,0,0,0,1.05-.24,0.81,0.81,0,0,0,.33-0.69,0.89,0.89,0,0,0-.11-0.46,1.17,1.17,0,0,0-.32-0.35,2.69,2.69,0,0,0-.51-0.29q-0.3-.13-0.68-0.26t-0.74-.3a2.49,2.49,0,0,1-.63-0.41,1.88,1.88,0,0,1-.44-0.59,1.86,1.86,0,0,1-.17-0.82,1.92,1.92,0,0,1,.69-1.57,2.88,2.88,0,0,1,1.88-.57,4.47,4.47,0,0,1,1.23.15,3.78,3.78,0,0,1,.85.34l-0.42,1.09a3.19,3.19,0,0,0-.79-0.31A3.7,3.7,0,0,0,25.45,67a1.4,1.4,0,0,0-.85.22,0.74,0.74,0,0,0-.3.63,0.83,0.83,0,0,0,.1.42,1,1,0,0,0,.29.31,2.51,2.51,0,0,0,.44.26q0.25,0.12.55,0.22,0.52,0.19.93,0.39a2.64,2.64,0,0,1,.69.47,1.84,1.84,0,0,1,.43.64,2.37,2.37,0,0,1,.15.89A1.85,1.85,0,0,1,27.17,73a3.33,3.33,0,0,1-2.07.55,5.51,5.51,0,0,1-.84-0.06,5.36,5.36,0,0,1-.67-0.14,4.54,4.54,0,0,1-.51-0.18L22.75,73l0.39-1.1a4.55,4.55,0,0,0,.78.32A3.84,3.84,0,0,0,25.1,72.34Z"/><path class="cls-2" d="M33.75,65.08a3.47,3.47,0,0,1,.79.08,4.48,4.48,0,0,1,.51.14L34.8,66.37a2,2,0,0,0-.42-0.14,2.38,2.38,0,0,0-.52-0.05,1.34,1.34,0,0,0-.52.09,0.85,0.85,0,0,0-.34.25,1,1,0,0,0-.18.39,2.18,2.18,0,0,0-.05.5v0.37h2v1.08h-2v4.49H31.48v-6A2.39,2.39,0,0,1,32,65.69,2.21,2.21,0,0,1,33.75,65.08Z"/><path class="cls-2" d="M40.67,70.55a3.59,3.59,0,0,1-.19,1.2,2.66,2.66,0,0,1-.54.93,2.44,2.44,0,0,1-.85.6,2.73,2.73,0,0,1-1.09.21,2.69,2.69,0,0,1-1.09-.21,2.45,2.45,0,0,1-.84-0.6,2.73,2.73,0,0,1-.55-0.93,3.5,3.5,0,0,1-.2-1.2,3.46,3.46,0,0,1,.2-1.2,2.69,2.69,0,0,1,.55-0.92,2.45,2.45,0,0,1,.85-0.59A2.73,2.73,0,0,1,38,67.63a2.77,2.77,0,0,1,1.08.21,2.38,2.38,0,0,1,.85.59,2.74,2.74,0,0,1,.55.92A3.46,3.46,0,0,1,40.67,70.55Zm-1.32,0A2.17,2.17,0,0,0,39,69.24a1.26,1.26,0,0,0-2,0,2.17,2.17,0,0,0-.36,1.31A2.22,2.22,0,0,0,37,71.88a1.26,1.26,0,0,0,2,0A2.22,2.22,0,0,0,39.35,70.55Z"/><path class="cls-2" d="M45.17,68.93l-0.44-.11a3.26,3.26,0,0,0-.65-0.06,2.6,2.6,0,0,0-.45,0l-0.34.07v4.46H42V68a7.1,7.1,0,0,1,.93-0.26,5.81,5.81,0,0,1,1.24-.12l0.3,0,0.34,0,0.33,0.06,0.26,0.07Z"/><path class="cls-2" d="M50.87,65.89a4.28,4.28,0,0,1,2.44.59,2.21,2.21,0,0,1-.63,3.82q0.2,0.25.46,0.6t0.52,0.76q0.27,0.41.51,0.84t0.44,0.85H53.1q-0.2-.38-0.44-0.77l-0.47-.76q-0.24-.37-0.47-0.69l-0.44-.58H50.17v2.79H48.83V66.07a7.21,7.21,0,0,1,1-.14Q50.43,65.89,50.87,65.89ZM51,67q-0.43,0-.79,0v2.38h0.59a6.15,6.15,0,0,0,.86-0.05,1.81,1.81,0,0,0,.62-0.19,0.93,0.93,0,0,0,.38-0.37,1.24,1.24,0,0,0,.13-0.6,1.19,1.19,0,0,0-.13-0.57,1,1,0,0,0-.37-0.37,1.74,1.74,0,0,0-.57-0.2A4.16,4.16,0,0,0,51,67Z"/><path class="cls-3" d="M13.71,52.23A3.91,3.91,0,0,0,15.23,52a0.81,0.81,0,0,0,.45-0.82,1,1,0,0,0-.58-0.83,11,11,0,0,0-1.76-.8,17.84,17.84,0,0,1-1.67-.71A4.91,4.91,0,0,1,10.39,48a3.56,3.56,0,0,1-.82-1.22,4.53,4.53,0,0,1-.29-1.71A3.7,3.7,0,0,1,10.74,42a6.29,6.29,0,0,1,4-1.13,12.75,12.75,0,0,1,2.42.22,11.28,11.28,0,0,1,1.84.49L18.29,44.6a14.47,14.47,0,0,0-1.49-.42A8.09,8.09,0,0,0,15,44q-1.84,0-1.84,1a1.06,1.06,0,0,0,.08.42,0.9,0.9,0,0,0,.32.36,4.41,4.41,0,0,0,.64.37q0.41,0.2,1,.44a16.11,16.11,0,0,1,2.13.94,5.1,5.1,0,0,1,1.33,1,3.1,3.1,0,0,1,.68,1.19,5.3,5.3,0,0,1,.2,1.52A3.51,3.51,0,0,1,18,54.37a7.68,7.68,0,0,1-4.35,1,12.29,12.29,0,0,1-4.76-.84l0.66-3.18a12.81,12.81,0,0,0,2.05.62A10,10,0,0,0,13.71,52.23Z"/><path class="cls-3" d="M26.26,37.21a2.15,2.15,0,0,1-.7,1.7,2.5,2.5,0,0,1-3.29,0,2.41,2.41,0,0,1,0-3.39,2.5,2.5,0,0,1,3.29,0A2.15,2.15,0,0,1,26.26,37.21ZM25.89,55H22V41.21h3.92V55Z"/><path class="cls-3" d="M36.65,47.71A5.41,5.41,0,0,0,36.16,45a1.81,1.81,0,0,0-1.67-.79q-0.37,0-.76,0L33,44.37V55H29V41.68l1.17-.28q0.67-.14,1.42-0.26T33.18,41q0.79-.07,1.55-0.07a6.53,6.53,0,0,1,2.43.38,5.5,5.5,0,0,1,1.54.91,7.33,7.33,0,0,1,3.95-1.29,6.91,6.91,0,0,1,2.72.46,4.11,4.11,0,0,1,1.7,1.3,4.93,4.93,0,0,1,.87,2,12.91,12.91,0,0,1,.24,2.58V55H44.25V47.71A5.41,5.41,0,0,0,43.77,45a1.81,1.81,0,0,0-1.67-.79,3.53,3.53,0,0,0-.88.16,3.43,3.43,0,0,0-.93.39,6,6,0,0,1,.24,1.28q0.05,0.67.05,1.43V55H36.65V47.71Z"/><path class="cls-3" d="M58.8,47.71A5.41,5.41,0,0,0,58.32,45a1.81,1.81,0,0,0-1.67-.79q-0.37,0-.76,0l-0.76.09V55H51.2V41.68l1.17-.28q0.67-.14,1.42-0.26T55.33,41q0.79-.07,1.55-0.07a6.53,6.53,0,0,1,2.43.38,5.5,5.5,0,0,1,1.54.91,7.33,7.33,0,0,1,3.95-1.29,6.91,6.91,0,0,1,2.72.46,4.11,4.11,0,0,1,1.7,1.3,4.93,4.93,0,0,1,.87,2,12.91,12.91,0,0,1,.24,2.58V55H66.41V47.71A5.41,5.41,0,0,0,65.92,45a1.81,1.81,0,0,0-1.67-.79,3.53,3.53,0,0,0-.88.16,3.43,3.43,0,0,0-.93.39,6,6,0,0,1,.24,1.28q0.05,0.67.05,1.43V55H58.8V47.71Z"/><path class="cls-3" d="M72.7,48.24A8.46,8.46,0,0,1,73.26,45a6.91,6.91,0,0,1,1.49-2.3,6.18,6.18,0,0,1,2.12-1.39,6.63,6.63,0,0,1,2.46-.47A6.12,6.12,0,0,1,84,42.64a7.43,7.43,0,0,1,1.71,5.3q0,0.34,0,.75t-0.05.72H76.72a2.6,2.6,0,0,0,1.13,1.92,4.55,4.55,0,0,0,2.68.71,11.33,11.33,0,0,0,2.12-.2,8,8,0,0,0,1.7-.49l0.53,3.18a5.42,5.42,0,0,1-.84.32,11,11,0,0,1-1.17.28q-0.64.12-1.38,0.2a13.83,13.83,0,0,1-1.47.08,8.72,8.72,0,0,1-3.25-.55,6.32,6.32,0,0,1-2.29-1.51,6,6,0,0,1-1.34-2.28A9,9,0,0,1,72.7,48.24Zm9.21-1.5a4.08,4.08,0,0,0-.17-1,2.44,2.44,0,0,0-.45-0.84,2.39,2.39,0,0,0-.76-0.61,2.49,2.49,0,0,0-1.14-.24,2.63,2.63,0,0,0-1.13.22,2.34,2.34,0,0,0-.79.59,2.65,2.65,0,0,0-.49.86,5.59,5.59,0,0,0-.25,1H81.9Z"/><path class="cls-3" d="M96.53,44.68l-1.24-.28a7.65,7.65,0,0,0-1.53-.14,7.1,7.1,0,0,0-.88.07,5.2,5.2,0,0,0-.78.14V55H88.19V41.95a23.56,23.56,0,0,1,2.49-.7,14.32,14.32,0,0,1,3.2-.33q0.32,0,.76,0l0.89,0.11,0.89,0.16a4.21,4.21,0,0,1,.76.22Z"/><path class="cls-3" d="M109.44,63.84h-4.51l9.59-17.34a3.81,3.81,0,1,0-6.67-3.69l-11.62,21H62.35V98a14.1,14.1,0,0,0,14.1,14.1h18.9A14.1,14.1,0,0,0,109.44,98V84.88A10.52,10.52,0,1,0,109.44,63.84ZM84.13,74.42a4,4,0,1,1-4,4A4,4,0,0,1,84.13,74.42Zm1.77,28.41A5.81,5.81,0,1,1,91.7,97,5.81,5.81,0,0,1,85.9,102.83ZM97,87.62a4,4,0,1,1,4-4A4,4,0,0,1,97,87.62Zm12.43-8.18V69.28A5.08,5.08,0,1,1,109.44,79.44Z"/><circle class="cls-4" cx="84.13" cy="78.46" r="4.04"/><circle class="cls-4" cx="85.9" cy="97.03" r="5.81"/><circle class="cls-4" cx="97.01" cy="83.59" r="4.02"/></svg>