<?xml version="1.0" encoding="utf-8"?>
<!-- Generator: Adobe Illustrator 19.2.1, SVG Export Plug-In . SVG Version: 6.00 Build 0)  -->
<svg version="1.1" id="Capa_1" xmlns="http://www.w3.org/2000/svg" xmlns:xlink="http://www.w3.org/1999/xlink" x="0px" y="0px"
	 viewBox="0 0 348 94.6" style="enable-background:new 0 0 348 94.6;" xml:space="preserve">
<style type="text/css">
	.st0{fill:#010202;}
</style>
<g>
	<path class="st0" d="M18.7,63.8c2.3,0,3.9-0.2,4.9-0.7c1-0.4,1.4-1.3,1.4-2.6c0-1-0.6-1.9-1.8-2.6c-1.2-0.8-3.1-1.6-5.6-2.6
		c-2-0.7-3.7-1.5-5.3-2.3s-3-1.7-4.1-2.8s-2-2.4-2.6-3.9S4.7,43,4.7,40.8c0-4.1,1.5-7.4,4.6-9.8s7.3-3.6,12.7-3.6
		c2.7,0,5.3,0.2,7.7,0.7c2.5,0.5,4.4,1,5.9,1.6l-2.2,9.7c-1.5-0.5-3-1-4.7-1.3c-1.7-0.4-3.6-0.6-5.8-0.6c-3.9,0-5.9,1.1-5.9,3.3
		c0,0.5,0.1,1,0.3,1.3c0.2,0.4,0.5,0.8,1,1.1c0.5,0.4,1.2,0.8,2.1,1.2c0.9,0.4,2,0.9,3.3,1.4c2.7,1,5,2,6.8,3c1.8,1,3.2,2.1,4.2,3.2
		c1,1.1,1.8,2.4,2.2,3.8s0.6,3,0.6,4.9c0,4.4-1.6,7.7-4.9,9.9S24.7,74,18.7,74c-3.9,0-7.2-0.3-9.8-1s-4.4-1.2-5.4-1.7l2.1-10.2
		c2.1,0.8,4.3,1.5,6.6,2C14.3,63.6,16.5,63.8,18.7,63.8z"/>
	<path class="st0" d="M58.8,15.9c0,2.3-0.7,4.1-2.2,5.4s-3.2,2-5.2,2c-2,0-3.8-0.7-5.2-2C44.7,20,44,18.2,44,15.9s0.7-4.1,2.2-5.4
		s3.2-2,5.2-2c2,0,3.8,0.7,5.2,2S58.8,13.6,58.8,15.9z M57.6,72.8H45.1V28.7h12.5V72.8z"/>
	<path class="st0" d="M92,49.4c0-4-0.5-6.9-1.6-8.6c-1-1.7-2.8-2.5-5.3-2.5c-0.8,0-1.6,0-2.4,0.1s-1.7,0.2-2.4,0.3v34.1H67.7V30.2
		c1.1-0.3,2.3-0.6,3.7-0.9c1.4-0.3,2.9-0.6,4.5-0.8s3.2-0.4,4.9-0.6s3.3-0.2,5-0.2c3.2,0,5.8,0.4,7.8,1.2c2,0.8,3.6,1.8,4.9,2.9
		c1.8-1.3,3.8-2.3,6.2-3c2.3-0.7,4.5-1.1,6.4-1.1c3.5,0,6.4,0.5,8.7,1.5s4.1,2.4,5.4,4.2c1.3,1.8,2.3,3.9,2.8,6.4
		c0.5,2.5,0.8,5.2,0.8,8.2v24.9h-12.5V49.4c0-4-0.5-6.9-1.6-8.6c-1-1.7-2.8-2.5-5.3-2.5c-0.7,0-1.6,0.2-2.8,0.5
		c-1.2,0.3-2.2,0.8-3,1.3c0.4,1.3,0.6,2.6,0.8,4.1c0.1,1.4,0.2,3,0.2,4.6v24.1H92.1L92,49.4L92,49.4z"/>
	<path class="st0" d="M162.7,49.4c0-4-0.5-6.9-1.6-8.6c-1-1.7-2.8-2.5-5.3-2.5c-0.8,0-1.6,0-2.4,0.1s-1.7,0.2-2.4,0.3v34.1h-12.5
		V30.2c1.1-0.3,2.3-0.6,3.7-0.9s2.9-0.6,4.5-0.8s3.2-0.4,4.9-0.6s3.3-0.2,5-0.2c3.2,0,5.8,0.4,7.8,1.2c2,0.8,3.6,1.8,4.9,2.9
		c1.8-1.3,3.8-2.3,6.2-3c2.3-0.7,4.5-1.1,6.4-1.1c3.5,0,6.4,0.5,8.7,1.5s4.1,2.4,5.4,4.2c1.3,1.8,2.3,3.9,2.8,6.4s0.8,5.2,0.8,8.2
		v24.9h-12.5V49.4c0-4-0.5-6.9-1.6-8.6c-1-1.7-2.8-2.5-5.3-2.5c-0.7,0-1.6,0.2-2.8,0.5s-2.2,0.8-3,1.3c0.4,1.3,0.6,2.6,0.8,4.1
		c0.1,1.4,0.2,3,0.2,4.6v24.1h-12.7V49.4z"/>
	<path class="st0" d="M207,51.1c0-3.9,0.6-7.3,1.8-10.3c1.2-2.9,2.8-5.4,4.7-7.3c2-2,4.2-3.4,6.8-4.5c2.5-1,5.2-1.5,7.9-1.5
		c6.3,0,11.2,1.9,14.9,5.8c3.6,3.8,5.5,9.5,5.5,16.9c0,0.7,0,1.5-0.1,2.4s-0.1,1.6-0.2,2.3h-28.4c0.3,2.6,1.5,4.6,3.6,6.1
		s5,2.3,8.6,2.3c2.3,0,4.5-0.2,6.8-0.6s4-0.9,5.4-1.6l1.7,10.2c-0.7,0.3-1.6,0.7-2.7,1c-1.1,0.3-2.4,0.6-3.7,0.9s-2.8,0.5-4.4,0.6
		c-1.6,0.2-3.1,0.3-4.7,0.3c-4,0-7.4-0.6-10.4-1.8c-2.9-1.2-5.4-2.8-7.3-4.8c-1.9-2-3.4-4.5-4.3-7.3C207.5,57.4,207,54.3,207,51.1z
		 M236.4,46.3c-0.1-1.1-0.2-2.1-0.5-3.1s-0.8-1.9-1.4-2.7c-0.6-0.8-1.5-1.4-2.4-1.9c-1-0.5-2.2-0.8-3.7-0.8c-1.4,0-2.6,0.2-3.6,0.7
		s-1.8,1.1-2.5,1.9c-0.7,0.8-1.2,1.7-1.6,2.7c-0.4,1-0.6,2.1-0.8,3.2C219.9,46.3,236.4,46.3,236.4,46.3z"/>
	<path class="st0" d="M283.1,39.7c-1.1-0.3-2.4-0.6-3.9-0.9c-1.5-0.3-3.1-0.5-4.9-0.5c-0.8,0-1.7,0.1-2.8,0.2
		c-1.1,0.1-1.9,0.3-2.5,0.5v33.8h-12.5V31c2.2-0.8,4.9-1.5,7.9-2.2c3.1-0.7,6.5-1,10.2-1c0.7,0,1.5,0,2.4,0.1s1.9,0.2,2.9,0.3
		c1,0.1,1.9,0.3,2.9,0.5s1.8,0.4,2.4,0.7L283.1,39.7z"/>
</g>
<path class="st0" d="M336.1,28.5H332l8.8-15.9c0.9-1.7,0.3-3.8-1.4-4.8c-1.7-0.9-3.8-0.3-4.8,1.4l-10.7,19.3h-31.1v31.4
	c0,7.2,5.8,12.9,12.9,12.9h17.4c7.2,0,12.9-5.8,12.9-12.9v-12c5.3,0,9.7-4.3,9.7-9.7S341.4,28.5,336.1,28.5z M312.8,38.3
	c2,0,3.7,1.7,3.7,3.7s-1.7,3.7-3.7,3.7s-3.7-1.7-3.7-3.7C309.1,39.9,310.8,38.3,312.8,38.3z M314.5,64.4c-2.9,0-5.3-2.4-5.3-5.3
	c0-2.9,2.4-5.3,5.3-5.3s5.3,2.4,5.3,5.3C319.8,62,317.4,64.4,314.5,64.4z M324.7,50.4c-2,0-3.7-1.7-3.7-3.7s1.7-3.7,3.7-3.7
	s3.7,1.7,3.7,3.7S326.7,50.4,324.7,50.4z M336.1,42.9v-9.3c2.6,0,4.7,2.1,4.7,4.7S338.7,42.9,336.1,42.9z"/>
</svg>
