<?xml version="1.0" encoding="UTF-8" standalone="no"?>
<!DOCTYPE svg PUBLIC "-//W3C//DTD SVG 1.0//EN" "http://www.w3.org/TR/2001/PR-SVG-20010719/DTD/svg10.dtd">
<svg width="34cm" height="22cm" viewBox="250 42 678 436" xmlns="http://www.w3.org/2000/svg" xmlns:xlink="http://www.w3.org/1999/xlink">
  <g>
    <rect style="fill: #2462b0" x="490.724" y="94.0747" width="132.194" height="41.8004"/>
    <rect style="fill: none; fill-opacity:0; stroke-width: 2.35099e-37; stroke: #000000" x="490.724" y="94.0747" width="132.194" height="41.8004"/>
  </g>
  <g>
    <rect style="fill: #2462b0" x="761.382" y="93.5522" width="145.779" height="98.231"/>
    <rect style="fill: none; fill-opacity:0; stroke-width: 2.35099e-37; stroke: #000000" x="761.382" y="93.5522" width="145.779" height="98.231"/>
  </g>
  <g>
    <rect style="fill: #ffffff" x="405.352" y="280.53" width="80" height="28"/>
    <rect style="fill: none; fill-opacity:0; stroke-width: 2; stroke: #000000" x="405.352" y="280.53" width="80" height="28"/>
    <text font-size="16" style="fill: #000000;text-anchor:middle;font-family:sans-serif;font-style:normal;font-weight:700" x="445.352" y="299.53">Process</text>
    <rect style="fill: #ffffff" x="405.352" y="308.53" width="80" height="8"/>
    <rect style="fill: none; fill-opacity:0; stroke-width: 2; stroke: #000000" x="405.352" y="308.53" width="80" height="8"/>
    <rect style="fill: #ffffff" x="405.352" y="316.53" width="80" height="8"/>
    <rect style="fill: none; fill-opacity:0; stroke-width: 2; stroke: #000000" x="405.352" y="316.53" width="80" height="8"/>
  </g>
  <g>
    <rect style="fill: #ffffff" x="508.2" y="111.564" width="97.9" height="28"/>
    <rect style="fill: none; fill-opacity:0; stroke-width: 2; stroke: #000000" x="508.2" y="111.564" width="97.9" height="28"/>
    <text font-size="16" style="fill: #000000;text-anchor:middle;font-family:sans-serif;font-style:normal;font-weight:700" x="557.15" y="130.564">Simulator</text>
    <rect style="fill: #ffffff" x="508.2" y="139.564" width="97.9" height="8"/>
    <rect style="fill: none; fill-opacity:0; stroke-width: 2; stroke: #000000" x="508.2" y="139.564" width="97.9" height="8"/>
    <rect style="fill: #ffffff" x="508.2" y="147.564" width="97.9" height="8"/>
    <rect style="fill: none; fill-opacity:0; stroke-width: 2; stroke: #000000" x="508.2" y="147.564" width="97.9" height="8"/>
  </g>
  <g>
    <rect style="fill: #ffffff" x="525.46" y="203.344" width="63.6" height="28"/>
    <rect style="fill: none; fill-opacity:0; stroke-width: 2; stroke: #000000" x="525.46" y="203.344" width="63.6" height="28"/>
    <text font-size="16" style="fill: #000000;text-anchor:middle;font-family:sans-serif;font-style:normal;font-weight:700" x="557.26" y="222.344">Entity</text>
    <rect style="fill: #ffffff" x="525.46" y="231.344" width="63.6" height="8"/>
    <rect style="fill: none; fill-opacity:0; stroke-width: 2; stroke: #000000" x="525.46" y="231.344" width="63.6" height="8"/>
    <rect style="fill: #ffffff" x="525.46" y="239.344" width="63.6" height="8"/>
    <rect style="fill: none; fill-opacity:0; stroke-width: 2; stroke: #000000" x="525.46" y="239.344" width="63.6" height="8"/>
  </g>
  <g>
    <rect style="fill: #ffffff" x="640.808" y="280.53" width="93.3" height="28"/>
    <rect style="fill: none; fill-opacity:0; stroke-width: 2; stroke: #000000" x="640.808" y="280.53" width="93.3" height="28"/>
    <text font-size="16" style="fill: #000000;text-anchor:middle;font-family:sans-serif;font-style:normal;font-weight:700" x="687.458" y="299.53">Resource</text>
    <rect style="fill: #ffffff" x="640.808" y="308.53" width="93.3" height="8"/>
    <rect style="fill: none; fill-opacity:0; stroke-width: 2; stroke: #000000" x="640.808" y="308.53" width="93.3" height="8"/>
    <rect style="fill: #ffffff" x="640.808" y="316.53" width="93.3" height="8"/>
    <rect style="fill: none; fill-opacity:0; stroke-width: 2; stroke: #000000" x="640.808" y="316.53" width="93.3" height="8"/>
  </g>
  <g>
    <rect style="fill: #ffffff" x="536.724" y="388.882" width="89.1" height="28"/>
    <rect style="fill: none; fill-opacity:0; stroke-width: 2; stroke: #000000" x="536.724" y="388.882" width="89.1" height="28"/>
    <text font-size="16" style="fill: #000000;text-anchor:middle;font-family:sans-serif;font-style:normal;font-weight:700" x="581.274" y="407.882">Manager</text>
    <rect style="fill: #ffffff" x="536.724" y="416.882" width="89.1" height="8"/>
    <rect style="fill: none; fill-opacity:0; stroke-width: 2; stroke: #000000" x="536.724" y="416.882" width="89.1" height="8"/>
    <rect style="fill: #ffffff" x="536.724" y="424.882" width="89.1" height="8"/>
    <rect style="fill: none; fill-opacity:0; stroke-width: 2; stroke: #000000" x="536.724" y="424.882" width="89.1" height="8"/>
  </g>
  <g>
    <rect style="fill: #ffffff" x="639.824" y="111.564" width="95.25" height="28"/>
    <rect style="fill: none; fill-opacity:0; stroke-width: 2; stroke: #000000" x="639.824" y="111.564" width="95.25" height="28"/>
    <text font-size="16" style="fill: #000000;text-anchor:middle;font-family:sans-serif;font-style:normal;font-weight:700" x="687.449" y="130.564">StatsMap</text>
    <rect style="fill: #ffffff" x="639.824" y="139.564" width="95.25" height="8"/>
    <rect style="fill: none; fill-opacity:0; stroke-width: 2; stroke: #000000" x="639.824" y="139.564" width="95.25" height="8"/>
    <rect style="fill: #ffffff" x="639.824" y="147.564" width="95.25" height="8"/>
    <rect style="fill: none; fill-opacity:0; stroke-width: 2; stroke: #000000" x="639.824" y="147.564" width="95.25" height="8"/>
  </g>
  <g>
    <rect style="fill: #ffffff" x="783.996" y="111.564" width="100.7" height="28"/>
    <rect style="fill: none; fill-opacity:0; stroke-width: 2; stroke: #000000" x="783.996" y="111.564" width="100.7" height="28"/>
    <text font-size="16" style="fill: #000000;text-anchor:middle;font-family:sans-serif;font-style:normal;font-weight:700" x="834.346" y="130.564">Trajectory</text>
    <rect style="fill: #ffffff" x="783.996" y="139.564" width="100.7" height="8"/>
    <rect style="fill: none; fill-opacity:0; stroke-width: 2; stroke: #000000" x="783.996" y="139.564" width="100.7" height="8"/>
    <rect style="fill: #ffffff" x="783.996" y="147.564" width="100.7" height="8"/>
    <rect style="fill: none; fill-opacity:0; stroke-width: 2; stroke: #000000" x="783.996" y="147.564" width="100.7" height="8"/>
  </g>
  <g>
    <rect style="fill: #ffffff" x="794.794" y="387.34" width="79.1" height="28"/>
    <rect style="fill: none; fill-opacity:0; stroke-width: 2; stroke: #000000" x="794.794" y="387.34" width="79.1" height="28"/>
    <text font-size="16" style="fill: #000000;text-anchor:middle;font-family:sans-serif;font-style:normal;font-weight:700" x="834.344" y="406.34">Activity</text>
    <rect style="fill: #ffffff" x="794.794" y="415.34" width="79.1" height="8"/>
    <rect style="fill: none; fill-opacity:0; stroke-width: 2; stroke: #000000" x="794.794" y="415.34" width="79.1" height="8"/>
    <rect style="fill: #ffffff" x="794.794" y="423.34" width="79.1" height="8"/>
    <rect style="fill: none; fill-opacity:0; stroke-width: 2; stroke: #000000" x="794.794" y="423.34" width="79.1" height="8"/>
  </g>
  <g>
    <rect style="fill: #ffffff" x="251.08" y="388.882" width="101.5" height="28"/>
    <rect style="fill: none; fill-opacity:0; stroke-width: 2; stroke: #000000" x="251.08" y="388.882" width="101.5" height="28"/>
    <text font-size="16" style="fill: #000000;text-anchor:middle;font-family:sans-serif;font-style:normal;font-weight:700" x="301.83" y="407.882">Generator</text>
    <rect style="fill: #ffffff" x="251.08" y="416.882" width="101.5" height="8"/>
    <rect style="fill: none; fill-opacity:0; stroke-width: 2; stroke: #000000" x="251.08" y="416.882" width="101.5" height="8"/>
    <rect style="fill: #ffffff" x="251.08" y="424.882" width="101.5" height="8"/>
    <rect style="fill: none; fill-opacity:0; stroke-width: 2; stroke: #000000" x="251.08" y="424.882" width="101.5" height="8"/>
  </g>
  <g>
    <rect style="fill: #ffffff" x="410.166" y="388.882" width="70.45" height="28"/>
    <rect style="fill: none; fill-opacity:0; stroke-width: 2; stroke: #000000" x="410.166" y="388.882" width="70.45" height="28"/>
    <text font-size="16" style="fill: #000000;text-anchor:middle;font-family:sans-serif;font-style:normal;font-weight:700" x="445.391" y="407.882">Arrival</text>
    <rect style="fill: #ffffff" x="410.166" y="416.882" width="70.45" height="8"/>
    <rect style="fill: none; fill-opacity:0; stroke-width: 2; stroke: #000000" x="410.166" y="416.882" width="70.45" height="8"/>
    <rect style="fill: #ffffff" x="410.166" y="424.882" width="70.45" height="8"/>
    <rect style="fill: none; fill-opacity:0; stroke-width: 2; stroke: #000000" x="410.166" y="424.882" width="70.45" height="8"/>
  </g>
  <g>
    <polyline style="fill: none; fill-opacity:0; stroke-width: 2; stroke: #000000" points="557.26,266.586 557.26,302.53 486.357,302.53 "/>
    <polygon style="fill: #ffffff" points="565.26,266.586 557.26,250.586 549.26,266.586 "/>
    <polygon style="fill: none; fill-opacity:0; stroke-width: 2; stroke: #000000" points="565.26,266.586 557.26,250.586 549.26,266.586 "/>
  </g>
  <g>
    <polyline style="fill: none; fill-opacity:0; stroke-width: 2; stroke: #000000" points="608.304,225.344 622.935,225.344 622.935,302.53 639.802,302.53 "/>
    <polygon style="fill: #ffffff" points="608.304,217.344 592.304,225.344 608.304,233.344 "/>
    <polygon style="fill: none; fill-opacity:0; stroke-width: 2; stroke: #000000" points="608.304,217.344 592.304,225.344 608.304,233.344 "/>
  </g>
  <g>
    <polyline style="fill: none; fill-opacity:0; stroke-width: 2; stroke: #000000" points="445.352,343.772 445.352,364.706 301.83,364.706 301.83,387.876 "/>
    <polygon style="fill: #ffffff" points="453.352,343.772 445.352,327.772 437.352,343.772 "/>
    <polygon style="fill: none; fill-opacity:0; stroke-width: 2; stroke: #000000" points="453.352,343.772 445.352,327.772 437.352,343.772 "/>
  </g>
  <g>
    <polyline style="fill: none; fill-opacity:0; stroke-width: 2; stroke: #000000" points="445.352,343.772 445.352,364.706 445.391,364.706 445.391,387.876 "/>
    <polygon style="fill: #ffffff" points="453.352,343.772 445.352,327.772 437.352,343.772 "/>
    <polygon style="fill: none; fill-opacity:0; stroke-width: 2; stroke: #000000" points="453.352,343.772 445.352,327.772 437.352,343.772 "/>
  </g>
  <g>
    <polyline style="fill: none; fill-opacity:0; stroke-width: 2; stroke: #000000" points="445.352,343.772 445.352,364.706 581.274,364.706 581.274,387.876 "/>
    <polygon style="fill: #ffffff" points="453.352,343.772 445.352,327.772 437.352,343.772 "/>
    <polygon style="fill: none; fill-opacity:0; stroke-width: 2; stroke: #000000" points="453.352,343.772 445.352,327.772 437.352,343.772 "/>
  </g>
  <g>
    <polyline style="fill: none; fill-opacity:0; stroke-width: 2; stroke: #000000" points="687.458,279.524 687.458,218.047 687.449,218.047 687.449,161.042 "/>
    <polyline style="fill: none; fill-opacity:0; stroke-width: 2; stroke: #000000" points="692.449,168.805 687.449,158.805 682.449,168.805 "/>
  </g>
  <g>
    <polyline style="fill: none; fill-opacity:0; stroke-width: 2; stroke: #000000" points="378.758,410.882 368.586,410.882 408.157,410.882 409.157,410.882 "/>
    <polygon style="fill: #ffffff" points="353.586,410.882 367.586,406.082 381.586,410.882 367.586,415.682 "/>
    <polygon style="fill: none; fill-opacity:0; stroke-width: 2; stroke: #000000" points="353.586,410.882 367.586,406.082 381.586,410.882 367.586,415.682 "/>
    <text font-size="12.7998" style="fill: #000000;text-anchor:middle;font-family:monospace;font-style:normal;font-weight:normal" x="388.372" y="407.882"/>
    <text font-size="12.7998" style="fill: #000000;text-anchor:start;font-family:monospace;font-style:normal;font-weight:normal" x="385.586" y="407.882"/>
    <text font-size="12.7998" style="fill: #000000;text-anchor:end;font-family:monospace;font-style:normal;font-weight:normal" x="405.157" y="407.882"/>
  </g>
  <g>
    <polyline style="fill: none; fill-opacity:0; stroke-width: 2; stroke: #000000" points="834.346,181.741 834.346,278.452 834.344,278.452 834.344,386.334 "/>
    <polygon style="fill: #000000" points="834.346,156.569 839.146,170.569 834.346,184.569 829.546,170.569 "/>
    <polygon style="fill: none; fill-opacity:0; stroke-width: 2; stroke: #000000" points="834.346,156.569 839.146,170.569 834.346,184.569 829.546,170.569 "/>
    <text font-size="12.7998" style="fill: #000000;text-anchor:middle;font-family:monospace;font-style:normal;font-weight:normal" x="834.345" y="275.452"/>
    <text font-size="12.7998" style="fill: #000000;text-anchor:start;font-family:monospace;font-style:normal;font-weight:normal" x="845.346" y="168.569"/>
    <text font-size="12.7998" style="fill: #000000;text-anchor:start;font-family:monospace;font-style:normal;font-weight:normal" x="838.344" y="382.334"/>
  </g>
  <g>
    <polyline style="fill: none; fill-opacity:0; stroke-width: 2; stroke: #000000" points="557.15,181.741 557.15,186.454 557.26,186.454 557.26,202.338 "/>
    <polygon style="fill: #000000" points="557.15,156.569 561.95,170.569 557.15,184.569 552.35,170.569 "/>
    <polygon style="fill: none; fill-opacity:0; stroke-width: 2; stroke: #000000" points="557.15,156.569 561.95,170.569 557.15,184.569 552.35,170.569 "/>
    <text font-size="12.7998" style="fill: #000000;text-anchor:middle;font-family:monospace;font-style:normal;font-weight:normal" x="557.205" y="183.454"/>
    <text font-size="12.7998" style="fill: #000000;text-anchor:start;font-family:monospace;font-style:normal;font-weight:normal" x="568.15" y="168.569"/>
    <text font-size="12.7998" style="fill: #000000;text-anchor:start;font-family:monospace;font-style:normal;font-weight:normal" x="561.26" y="198.338"/>
  </g>
  <g>
    <polyline style="fill: none; fill-opacity:0; stroke-width: 2; stroke: #000000" points="301.83,432.882 301.83,477.09 917.428,477.09 917.428,133.564 890.136,133.564 "/>
    <polyline style="fill: none; fill-opacity:0; stroke-width: 2; stroke: #000000" points="897.9,128.564 887.9,133.564 897.9,138.564 "/>
  </g>
  <g>
    <polyline style="fill: none; fill-opacity:0; stroke-width: 2; stroke: #000000" points="445.391,433.887 445.391,464.528 834.344,464.528 834.344,436.798 "/>
    <polyline style="fill: none; fill-opacity:0; stroke-width: 2; stroke: #000000" points="839.344,444.562 834.344,434.562 829.344,444.562 "/>
  </g>
  <g>
    <polyline style="fill: none; fill-opacity:0; stroke-width: 2; stroke: #000000" points="917.408,132.769 917.408,84.2528 687.449,84.2528 687.449,106.122 "/>
    <polyline style="fill: none; fill-opacity:0; stroke-width: 2; stroke: #000000" points="682.449,98.3576 687.449,108.358 692.449,98.3577 "/>
  </g>
  <g>
    <polyline style="fill: none; fill-opacity:0; stroke-width: 2; stroke-dasharray: 8; stroke: #000000" points="625.824,402.882 625.824,409.392 687.458,409.392 687.458,332.22 "/>
    <polyline style="fill: none; fill-opacity:0; stroke-width: 2; stroke: #000000" points="692.458,344.867 687.458,328.867 682.458,344.867 "/>
  </g>
  <g>
    <polyline style="fill: none; fill-opacity:0; stroke-width: 2; stroke-dasharray: 8; stroke: #000000" points="793.784,409.34 768.449,409.34 768.449,302.53 741.819,302.53 "/>
    <polyline style="fill: none; fill-opacity:0; stroke-width: 2; stroke: #000000" points="754.466,297.53 738.466,302.53 754.466,307.53 "/>
  </g>
  <g>
    <ellipse style="fill: #2462b0" cx="273.624" cy="429.262" rx="14.8914" ry="14.8914"/>
    <ellipse style="fill: none; fill-opacity:0; stroke-width: 2.35099e-37; stroke: #000000" cx="273.624" cy="429.262" rx="14.8914" ry="14.8914"/>
  </g>
  <g>
    <ellipse style="fill: #2462b0" cx="817.081" cy="427.172" rx="14.8914" ry="14.8914"/>
    <ellipse style="fill: none; fill-opacity:0; stroke-width: 2.35099e-37; stroke: #000000" cx="817.081" cy="427.172" rx="14.8914" ry="14.8914"/>
  </g>
</svg>
